<svg width="71" height="71" viewBox="0 0 71 71" fill="none" xmlns="http://www.w3.org/2000/svg">
<path d="M13.7752 27L12 28.5906C12.3943 28.9353 12.8305 29.2065 13.3103 29.4059C13.7892 29.6046 14.2541 29.7576 14.7043 29.8627C15.1553 29.9693 15.5348 30.0358 15.8462 30.0613C16.1558 30.0884 16.339 30.1007 16.3949 30.1007V53.9985H25.3556C27.2712 53.9985 29.0752 53.6545 30.7658 52.9644C32.4556 52.2757 33.9359 51.3406 35.2026 50.1612C36.098 49.3288 36.857 48.3906 37.4855 47.3526V53.9977H39.9368V32.8452L51.2641 43.741L62.5487 32.965V54H65V27.16L51.2641 40.5599L37.4863 27.1198V34.479C36.8579 33.438 36.0988 32.4951 35.2034 31.6526C33.9359 30.4593 32.4564 29.5188 30.7666 28.8286C29.076 28.14 27.2721 27.7953 25.3564 27.7953H16.3957C15.7755 27.769 15.2555 27.6824 14.8324 27.5371C14.4094 27.3918 14.0562 27.2125 13.7752 27ZM18.847 30.1015H25.3556C26.9336 30.1015 28.4197 30.3867 29.8145 30.9571C31.2094 31.5274 32.4276 32.3026 33.4701 33.2834C34.5126 34.2641 35.3365 35.4111 35.9427 36.7234C36.549 38.0357 36.8513 39.4338 36.8513 40.9185C36.8513 42.4295 36.5482 43.8353 35.9427 45.1329C35.3365 46.4321 34.5126 47.5721 33.4701 48.5529C32.4276 49.5336 31.2094 50.3026 29.8145 50.8591C28.4197 51.4155 26.9328 51.6945 25.3556 51.6945H18.847V30.1015V30.1015Z" fill="black"/>
<path d="M6.70868 28.6799C7.29039 29.2597 7.98925 29.7287 8.78278 30.0713C9.13021 30.2284 9.51614 30.3655 9.96145 30.4925C10.3169 30.5965 10.702 30.6835 11.1738 30.7682C11.5293 30.8321 11.9072 30.8822 12.4071 30.9322L13.0225 30.9761L13.6307 31C13.6339 31 13.6371 31 13.6395 31C13.6403 31 13.6411 31 13.6419 31C13.7655 31.0008 13.8698 30.9037 13.8698 30.7828C13.8698 30.6643 13.7711 30.568 13.6483 30.5657L13.0562 30.5226L12.4568 30.461C12.1318 30.4202 11.7034 30.3609 11.2757 30.2739C10.8232 30.1807 10.4581 30.0883 10.1267 29.982C9.72636 29.858 9.36851 29.7217 9.03071 29.5639C8.31902 29.2428 7.67312 28.7954 7.16281 28.271C6.65572 27.7397 6.26176 27.0844 6.02346 26.3744C5.79719 25.7168 5.68085 24.9768 5.67684 24.1729C5.67283 23.466 5.75306 22.7283 5.92076 21.9182C6.0708 21.2006 6.28423 20.459 6.55703 19.7129C6.76324 19.1446 6.98629 18.6063 7.22219 18.1089C7.26873 18.1705 7.31687 18.2313 7.36661 18.2937C7.56239 18.5301 7.74051 18.7318 7.90821 18.9082C8.07189 19.0822 8.25242 19.2609 8.49233 19.4865C8.70094 19.6798 8.90956 19.8615 9.11175 20.0255C9.31635 20.1957 9.52818 20.3528 9.76808 20.5314L9.87801 20.6084C10.0626 20.7385 10.2543 20.8725 10.4485 20.9888C10.6988 21.1513 10.9516 21.2937 11.1586 21.4077C11.3231 21.5055 11.4916 21.5887 11.6544 21.6687C11.7331 21.7073 11.8117 21.7465 11.9 21.7912C12.1415 21.9098 12.3693 22.0222 12.5868 22.1508C12.7978 22.2817 13.0209 22.4234 13.2255 22.5859C13.6242 22.8931 13.9885 23.255 14.3079 23.6608C14.6184 24.0535 14.8831 24.4901 15.0958 24.9591C15.3269 25.4766 15.4761 25.9478 15.5499 26.4006C15.5692 26.5169 15.6815 26.5985 15.8043 26.5823C15.9262 26.5662 16.0129 26.4599 15.9984 26.3421C15.9383 25.8408 15.793 25.3125 15.5684 24.7712C15.3541 24.2584 15.0813 23.7779 14.7604 23.3451C14.4394 22.9062 14.0503 22.5027 13.6058 22.1469C13.3843 21.9629 13.1444 21.8043 12.9166 21.6587C12.6726 21.5078 12.4143 21.3754 12.1896 21.2599C12.111 21.2175 12.0315 21.1767 11.9521 21.1359C11.79 21.0527 11.6368 20.9734 11.4867 20.881C11.2846 20.7647 11.0471 20.6246 10.8128 20.4667C10.6499 20.3651 10.495 20.255 10.3321 20.1395L10.1701 20.0247C9.95744 19.8661 9.75043 19.7098 9.54984 19.5404C9.35888 19.3833 9.16712 19.2147 8.96492 19.0252C8.74267 18.8142 8.56775 18.6394 8.41289 18.4723C8.25724 18.3083 8.09596 18.1235 7.9066 17.8917C7.77421 17.7254 7.60331 17.5052 7.46129 17.2803L7.34896 17.104C7.30644 17.0362 7.2278 16.9985 7.14677 17C7.06493 17.0031 6.99111 17.0486 6.9542 17.1186L6.85872 17.2988C6.50327 17.9718 6.18794 18.6895 5.89428 19.4942C5.61425 20.2773 5.39601 21.0504 5.24597 21.792C5.07346 22.6459 4.99323 23.426 5.00045 24.1791C5.01008 25.0507 5.14246 25.8577 5.39521 26.5769C5.67604 27.3654 6.12937 28.0924 6.70868 28.6799Z" fill="black"/>
<path d="M7.29934 21.0016C7.18575 20.9874 7.08055 21.0715 7.06301 21.1886C7.05996 21.2083 6.99364 21.6752 7.0005 22.3874C7.0066 22.679 7.02337 23.1224 7.09122 23.6058C7.15983 24.0869 7.26122 24.5491 7.39464 24.9815C7.47545 25.2299 7.55854 25.45 7.64926 25.6543C7.76133 25.9059 7.86272 26.104 7.96488 26.2738C8.07008 26.4585 8.19511 26.6424 8.33157 26.8146C8.39485 26.8995 8.46346 26.9781 8.52597 27.0481C8.59535 27.1298 8.66167 27.199 8.71885 27.2524C8.83168 27.3704 8.94451 27.4631 9.04514 27.5456L9.09698 27.5881C9.206 27.6706 9.30434 27.7382 9.38591 27.7948C9.38972 27.7972 9.40497 27.8082 9.40878 27.8098C9.58031 27.9135 9.67866 27.9709 9.67866 27.9709C9.7122 27.9906 9.74879 28 9.78539 28C9.85705 28 9.92719 27.9631 9.96759 27.8955C10.0286 27.794 10.0011 27.6612 9.90508 27.5952L9.65807 27.4254C9.58184 27.3656 9.48959 27.2925 9.39582 27.2131L9.33102 27.1526C9.24716 27.074 9.16102 26.993 9.06801 26.8908C9.01693 26.8398 8.96509 26.7808 8.90563 26.7053C8.85074 26.6401 8.79585 26.5733 8.7402 26.4915C8.62965 26.3414 8.52292 26.1747 8.42077 25.9924C8.33005 25.8383 8.24161 25.6583 8.14098 25.4256C8.06246 25.244 7.98851 25.0412 7.9138 24.8038C7.78649 24.4053 7.68586 23.9745 7.61572 23.5233C7.55397 23.113 7.5128 22.7136 7.49527 22.367C7.45791 21.698 7.48917 21.2413 7.48917 21.2366C7.49832 21.1187 7.4137 21.0149 7.29934 21.0016Z" fill="black"/>
</svg>
